<?xml version="1.0" encoding="utf-8" ?><svg xmlns="http://www.w3.org/2000/svg" xmlns:xlink="http://www.w3.org/1999/xlink" width="1024" height="1024" viewBox="0 0 1024 1024"><path fill="#221814" d="M571.883 138.948C601.463 109.423 633.466 78.3576 671.134 59.5274C698.427 45.8835 724.405 53.1114 737.225 81.5737C741.501 90.7537 747.419 110.699 748.226 121.113C750.247 129.826 752.521 160.085 751.565 168.51C751.775 172.792 751.326 188.602 750.527 192.7C750.241 199.942 749.487 207.237 748.714 214.444C747.634 222.508 746.59 230.624 745.202 238.637C744.124 244.864 742.606 250.963 741.578 257.199C753.556 286.233 763.603 319.176 772.668 349.352C777.605 365.788 786.597 393.544 789.339 410.106C790.521 415.112 791.147 419.487 791.898 424.552C794.72 447.651 793.635 466.427 784.726 488.537C783.045 492.711 779.662 499.967 777.109 503.615C762.78 532.99 721.796 562.577 694.325 578.57C706.507 594.749 713.429 604.912 724.022 622.303C724.058 605.22 720.778 589.785 732.699 576.347C761.984 543.337 919.853 541.443 919.084 598.183C919.057 599.875 919.006 601.567 918.931 603.258C934.734 601.301 950.606 603.592 963.691 613.441C964.639 614.154 966.558 615.802 967.228 616.72C990.884 637.822 988.762 683.256 970.585 706.935C958.976 725.893 939.589 734.093 919.035 739.139L918.946 748.654C936.931 753.204 955.923 761.578 973.62 767.475C985.89 771.563 984.374 782.023 977.03 790.221C976.929 800.803 976.521 815.809 977.14 826.213C983.315 833.506 984.168 837.669 976.047 844.364L868.263 932.807L838.444 957.24C833.592 961.222 817.112 976.443 811.177 975.1C801.385 972.885 789.344 967.482 779.791 963.685L713.853 937.205C690.326 927.94 666.85 918.544 643.426 909.018C634.427 905.356 625.269 901.759 616.403 898.059C609.691 895.258 604.705 891.981 604.387 883.958C603.816 869.529 603.333 853.144 604.84 838.835C605.81 829.628 615.852 823.411 622.708 818.379L643.548 803.114L700.491 761.212C708.003 755.649 716.821 749.561 724.058 743.907C724.126 739.309 724.039 733.178 724.412 728.706C714.828 744.18 697.408 756.072 680.06 761.079C675.445 762.411 671.918 761.565 666.514 763.479C661.823 771.308 631.624 782.344 622.373 783.305C618.505 784.014 614.628 784.667 610.742 785.262C610.537 786.32 610.091 788.969 609.824 789.891C604.965 813.257 598.769 836.671 593.268 859.918C590.838 870.184 586.917 877.714 576.091 881.036C571.383 882.628 536.947 882.067 529.059 882.066L448.364 882.048L69.2379 882.01C61.008 881.985 54.0438 881.812 47.8944 875.333C34.9159 861.66 48.3365 842.46 55.0488 828.78L76.1207 786.21L100.805 736.632C106.969 724.421 112.523 706.492 128.473 706.446C147.034 706.393 168.62 704.979 186.893 706.335C185.095 698.161 184.634 691.54 185.555 683.156C189.641 645.954 232.241 593.278 260.792 571.124C244.665 561.997 229.784 550.825 216.518 537.885C156.013 478.908 171.035 422.486 195.569 351.093C200.01 344.601 196.745 329.157 200.247 323.928C205.925 315.45 207.2 312.717 210.481 302.83L216.834 284.211C218.142 280.422 226.006 260.138 225.876 258.302C225.265 249.639 221.531 232.794 220.335 223.38C217.948 204.712 216.61 185.925 216.329 167.107C216.022 138.396 220.799 85.8666 241.608 64.922C249.19 57.3261 259.482 53.0576 270.215 53.0576C310.529 53.2643 369.99 112.46 396.944 139.632C448.793 126.005 519.904 126.385 571.883 138.948ZM950.261 645.338C957.713 655.724 956.468 675.287 949.838 685.712C945.078 698.151 930.818 705.291 919.115 709.472L919.022 721.773C951.037 714.577 965.753 692.439 967.557 660.696C966.869 650.514 966.096 647.697 962.169 638.138C956.121 629.056 949.62 622.974 938.56 620.759C934.204 619.886 924.029 619.12 920.215 621.006C918.372 623.036 918.979 632.413 918.992 635.575C927.306 633.615 934.701 632.966 942.509 637.673C945.661 639.581 948.317 642.208 950.261 645.338ZM919.045 692.419C922.711 690.689 924.985 689.589 928.179 686.968C934.536 681.19 937.601 674.335 938.178 665.81C938.757 657.241 935.141 650.34 925.656 651.112C923.459 651.506 921.659 651.577 919.917 652.884C918.425 655.59 918.985 686.952 919.045 692.419Z"/><path fill="#070504" d="M789.339 410.106L788.754 410.991C787.227 410.032 786.808 404.633 786.224 402.461C774.872 360.275 762.105 318.375 747.772 277.089C745.63 270.921 741.649 262.824 740.527 256.917C740.007 254.174 742.997 242.298 743.645 238.604C745.187 229.627 746.608 220.63 747.909 211.615L748.248 211.56L748.714 214.444C747.634 222.508 746.59 230.624 745.202 238.637C744.124 244.864 742.606 250.963 741.578 257.199C753.556 286.233 763.603 319.176 772.668 349.352C777.605 365.788 786.597 393.544 789.339 410.106Z"/><path fill="#070504" d="M576.091 881.036C576.515 877.884 587.269 876.551 590.2 865.351C596.668 840.641 602.512 814.874 608.499 789.955C608.729 789.757 608.96 789.558 609.19 789.36L609.824 789.891C604.965 813.257 598.769 836.671 593.268 859.918C590.838 870.184 586.917 877.714 576.091 881.036Z"/><path fill="#070504" d="M967.228 616.72C990.884 637.822 988.762 683.256 970.585 706.935C970.464 704.494 975.122 698.154 976.31 694.988C984.882 672.292 987.028 646.8 972.893 625.773C971.534 623.751 967.363 618.71 967.228 616.72Z"/><path fill="#070504" d="M777.109 503.615L776.726 503.568C776.161 502.772 776.63 502.185 777.226 501.236C791.252 478.916 793.623 451.17 791.034 425.392L790.935 424.459L791.898 424.552C794.72 447.651 793.635 466.427 784.726 488.537C783.045 492.711 779.662 499.967 777.109 503.615Z"/><path fill="#070504" d="M622.373 783.305C622.106 783.136 622.309 783.296 621.626 782.509C622.398 781.839 629.405 780.351 630.947 779.902C645.375 775.699 654.425 771.744 666.203 762.922L666.514 763.479C661.823 771.308 631.624 782.344 622.373 783.305Z"/><path fill="#070504" d="M737.225 81.5737C741.501 90.7537 747.419 110.699 748.226 121.113L747.657 121.189C746.311 117.812 745.32 109.368 744.484 105.469C743.46 100.692 735.818 84.7773 737.225 81.5737Z"/><path fill="#070504" d="M750.527 192.7C747.886 187.198 751.532 175.788 750.841 169.499C751.082 169.169 751.324 168.839 751.565 168.51C751.775 172.792 751.326 188.602 750.527 192.7Z"/><path fill="#EDB374" d="M576.181 157.886C582.417 154.317 597.691 137.735 604.165 131.627C616.386 120.059 629.165 109.096 642.458 98.7773C656.22 88.1704 681.71 69.0474 699.959 70.8305C705.894 71.5123 714.211 77.653 717.189 83.0763C744.852 133.443 732.213 206.322 723.127 258.245C730.238 275.97 738.587 297.298 744.235 315.517C738.439 315.273 733.701 315.106 728.069 313.739C725.36 311.079 723.037 308.047 720.239 305.457C702.376 288.919 626.268 289.036 601.428 289.559C591.392 289.77 581.4 290.671 571.374 290.997L570.601 291.09C538.907 296.156 510.408 299.772 508.845 338.475C489.844 331.358 471.098 331.731 452.115 338.543C449.173 307.95 433.368 299.46 404.543 294.167C400.813 293.482 395.415 292.922 391.855 291.986C390.221 291.955 387.746 291.666 386.049 291.524C352.552 289.202 320.19 288.491 286.591 292.06C272.11 293.599 254.104 296.264 241.957 304.877C238.481 307.341 235.095 311.705 232.414 315.066L224.943 315.039C228.503 305.859 231.747 295.523 235.3 286.155C237.908 279.281 242.956 266.756 244.537 260.166C245.132 257.684 241.221 239.437 240.536 235.489C239.413 228.806 238.417 222.103 237.549 215.382C233.994 188.316 232.828 160.532 235.933 133.363C237.959 115.637 242.425 86.6683 257.226 75.3287C263.157 70.7851 270.321 70.0722 277.439 71.5317C305.022 77.1874 349.592 117.723 369.889 137.458C373.174 140.652 388.796 157.505 391.567 158.23C393.487 158.732 422.342 152.273 428.021 151.409C443.921 148.992 459.953 147.539 476.029 147.058C500.403 146.468 525.793 149.02 549.858 152.82C558.716 154.218 567.278 156.862 576.181 157.886Z"/><path fill="#FEEDD5" d="M386.049 291.524C362.917 282.115 372.597 271.999 390.97 266.65C400.787 263.791 414.387 248.897 420.233 264.754C421.633 268.531 420.58 273.558 418.653 276.96C413.864 285.089 401.858 288.939 393.29 291.394C392.352 291.662 392.908 291.447 391.855 291.986C390.221 291.955 387.746 291.666 386.049 291.524Z"/><path fill="#FEEDD5" d="M570.601 291.09C561.618 290.902 549.243 286.939 542.775 280.402C539.218 276.807 537.801 272.493 537.889 267.466C537.941 264.453 538.663 261.039 540.937 258.883C541.972 257.901 543.538 256.979 544.99 257.029C549.104 257.171 582.93 271.969 584.818 274.693C586.003 276.403 586.231 278.978 585.499 280.891C583.4 286.375 576.362 288.989 571.374 290.997L570.601 291.09Z"/><path fill="#FEEDD5" d="M275.554 108.484C276.384 108.466 277.214 108.515 278.035 108.631C291.752 110.487 323.036 143.858 331.124 155.609C332.907 157.639 337.01 164.041 335.959 166.785C334.502 170.589 322.839 177.512 319.515 179.82C312.422 184.78 305.423 189.873 298.521 195.095C291.672 200.482 285.173 205.933 278.793 211.863C276.195 214.278 271.537 218.613 267.897 217.93C257.613 209.734 259.019 133.72 265.858 120.017C268.732 114.258 269.644 111.232 275.554 108.484Z"/><path fill="#FEEDD5" d="M688.722 108.596C700.303 107.758 703.418 125.096 704.913 133.824C706.128 141.293 706.962 148.818 707.41 156.372C708.048 168.148 708.28 207.723 701.458 216.472C700.926 217.154 699.906 218.02 699.016 218.041C695.368 218.128 676.559 200.791 672.581 197.544C664.771 191.496 656.805 185.652 648.693 180.015C642.66 175.776 634.929 171.35 630.869 165.223C637.929 149.848 672.771 115.445 688.722 108.596Z"/><path fill="#FEEDD5" d="M451.725 358.47C469.48 347.865 490.497 348.706 508.891 357.281C510.838 374.458 512.511 384.81 518.236 401.373C527.647 423.808 539.383 444.316 563.579 453.008C600.576 466.3 664.18 466.783 696.146 442.395C719.568 446.583 745.911 453.782 762.246 472.508C764.504 475.096 766.703 477.79 768.912 480.425C751.321 524.468 704.994 556.228 662.926 574.732C656.31 577.642 644.48 581.567 638.964 584.973C557.196 610.604 470.365 615.655 386.177 599.678C377.422 598.073 328.613 584.291 326.251 584.463C321.713 579.649 306.418 575.148 299.352 571.975C258.111 553.457 214.755 523.452 197.621 480.112C214.856 457.098 236.563 447.901 264.599 443.22C296.353 467.041 367.779 467.014 403.381 450.101C421.282 441.597 436.84 418.95 442.588 400.192C445.936 390.983 448.402 381.477 449.953 371.803C450.63 367.515 450.989 362.563 451.725 358.47Z"/><path fill="#EDB374" d="M451.725 358.47C469.48 347.865 490.497 348.706 508.891 357.281C510.838 374.458 512.511 384.81 518.236 401.373C513.195 400.237 508.323 398.234 502.857 397.037C488.336 393.789 472.887 392.878 458.257 395.976C453.03 397.082 447.79 398.82 442.588 400.192C445.936 390.983 448.402 381.477 449.953 371.803C450.63 367.515 450.989 362.563 451.725 358.47Z"/><path fill="#221814" d="M471.083 411.185C512.347 405.939 546.355 437.279 505.924 470.695C500.819 474.915 493.291 477.629 486.986 479.577C486.627 488.846 486.771 496.397 487.014 505.714C499.185 508.299 510.704 510.766 521.233 517.908C525.713 520.393 534.818 527.793 533.313 533.888C530.288 546.137 518.834 537.845 514.145 533.993C506.429 527.656 495.826 524.777 486.62 523.608C472.466 521.985 457.006 524.374 444.889 532.618C439.047 536.592 431.446 545.996 423.997 536.186C422.433 534.125 422.835 529.193 424.521 527.133C435.733 513.441 454.072 509.591 470.397 505.698C470.564 497.007 470.807 488.421 470.446 479.728C463.161 477.562 458.522 475.912 452.151 471.598C437.886 461.938 425.852 442.273 438.004 426.086C445.484 416.124 459.231 412.672 471.083 411.185Z"/><path fill="#EDB374" d="M277.354 579.992C285.255 583.387 333.62 611.78 326.251 584.463C328.613 584.291 377.422 598.073 386.177 599.678C470.365 615.655 557.196 610.604 638.964 584.973C637.701 587.641 636.464 589.957 637.561 592.946C641.579 603.888 656.26 595.357 663.268 592.507C667.761 590.679 672.108 588.057 676.823 586.474C681.922 591.481 686.307 597.154 690.572 602.912C707.382 625.606 720.636 651.79 721.103 680.546C721.646 714.095 705.046 733.832 674.282 745.023C673.482 744.425 671.003 742.644 670.438 742.043C672.128 705.092 637.436 675.282 604.028 668.575C598.116 667.388 588.754 667.383 584.001 665.807C604.414 658.503 626.203 656.945 647.5 654.66C656.386 653.707 656.255 639.055 646.076 638.298C640.488 637.883 636.166 638.264 630.625 638.908C584.288 644.291 527.678 658.855 509.654 707.474L383.229 707.06C383.031 705.289 382.705 703.534 382.254 701.809C377.253 681.98 362.507 664.286 345.069 654.042C331.053 645.809 313.969 640.706 297.829 638.987C294.079 638.645 290.641 638.126 286.921 638.992C280.312 640.531 279.339 651.119 285.254 654.054C287.193 655.015 290.802 655.386 293.037 655.659C305.252 657.148 317.584 659.144 328.635 664.827L328.133 664.871C319.739 665.521 310.736 664.801 301.918 665.26C270.801 666.881 223.858 688.058 221.35 724.171L218.467 727.053C207.109 716.54 200.572 699.539 203.445 684.393C210.613 646.6 247.923 602.64 277.354 579.992Z"/><path fill="#EDB374" d="M788.148 718.943C794.388 721.764 804.984 725.11 811.717 727.441L854.347 742.316L918.802 765.311C933.617 770.62 949.529 776.515 964.434 781.182C929.843 810.544 894.853 839.433 859.474 867.84L829.954 891.568C824.605 895.824 818.18 901.232 812.514 904.882C809.948 904.552 808.312 903.861 805.89 903.013L695.73 861.092C673.943 852.735 649.199 843.946 627.966 834.817C638.618 826.551 650.167 818.508 661.108 810.536L720.079 767.413C735.421 755.899 750.923 744.599 766.581 733.519C772.694 729.206 781.849 722.412 788.148 718.943Z"/><path fill="#221814" d="M843.759 777.689C850.762 777.027 857.827 777.782 864.533 779.908C873.181 782.584 881.804 787.241 886.075 795.537C891.053 805.409 882.202 807.601 874.335 807.059C867.215 806.569 866.137 806.442 864.233 799.411C859.24 795.294 855.137 794.332 848.914 793.946C837.278 793.224 833.052 798.606 842.056 807.584C848.794 814.303 861.169 821.23 860.625 831.926C859.943 845.345 844.814 854.026 833.019 856.569C826.578 857.965 819.763 857.625 813.255 857.448C803.272 856.396 792.382 852.92 783.723 847.472C779.531 844.834 767.23 833.725 772.554 828.072C776.536 824.681 784.278 824.934 789.158 823.978C796.198 822.598 797.333 831.588 802.975 835.604C808.445 839.497 817.951 842.355 824.508 840.852C838.434 837.66 832.397 827.242 824.66 821.085C815.509 812.773 806.723 801.938 816.048 790.739C822.991 782.4 833.157 778.849 843.759 777.689Z"/><path fill="#221814" d="M804.001 759.543C805.132 759.395 806.3 759.268 807.44 759.388C811.005 759.763 819.65 762.047 821.445 765.268C821.804 765.914 822.021 766.655 821.674 767.323C819.548 771.412 770.51 813.631 762.976 819.163C758.981 822.096 753.907 825.517 749.064 826.786C736.232 830.219 722.556 828.295 711.17 821.454C707.883 819.136 704.681 815.703 703.412 811.836C702.444 808.932 702.698 805.76 704.116 803.048C709.27 793.07 721.87 795.336 730.14 799.547C729.274 801.631 727.273 805.408 728.816 807.157C739.666 819.456 753.479 804.258 760.195 798.176L787.132 773.785C791.91 769.467 798.663 762.772 804.001 759.543Z"/><path fill="#EDB374" d="M541.637 410.627C529.982 395.968 524.486 353.719 526.697 334.623C527.397 328.584 529.159 323.007 534.137 319.143C556.428 301.84 651.411 305.704 680.5 310.041C689.29 311.351 704.484 313.143 710.062 320.805C717.83 331.474 712.606 362.458 710.206 375.344C706.447 395.524 700.353 419.346 682.427 431.621C664.116 444.159 634.341 445.021 612.609 444.546C606.318 444.408 599.123 444.381 592.986 443.002C592.468 442.886 592.369 442.831 591.937 442.657C587.604 442.406 579.959 440.663 575.867 439.377C559.492 434.229 549.595 425.655 541.637 410.627Z"/><path fill="#FEEDD5" d="M541.637 410.627C549.772 411.702 590.856 436.976 591.937 442.657C587.604 442.406 579.959 440.663 575.867 439.377C559.492 434.229 549.595 425.655 541.637 410.627Z"/><path fill="#221814" d="M556.386 343.617C562.925 343.256 571.235 343.579 577.821 343.711C592.01 343.958 606.193 344.47 620.363 345.246C627.521 345.587 651.318 345.434 654.052 348.943C669.694 369.013 626.344 362.859 622.414 362.662L622.888 369.794C620.758 396.136 591.393 409.362 571.868 389.38C564.379 381.716 564.138 370.76 564.853 360.571C559.736 360.306 554.305 360.205 551.148 355.43C547.743 350.281 551.386 345.591 556.386 343.617Z"/><path fill="#EDB374" d="M366.413 442.748C366.181 442.82 365.953 442.908 365.717 442.964C359.837 444.344 352.887 444.32 346.855 444.468C326.198 444.974 300.813 444.651 282.43 434.359C265.567 424.919 258.505 408.519 253.555 390.646C249.384 375.59 241.527 335.252 249.568 321.821C253.023 316.05 261.656 313.615 267.848 312.159C298.644 304.914 398.827 302.185 424.289 318.098C429.344 321.257 431.968 325.922 433.264 331.669C437.6 350.897 430.438 391.99 419.861 408.453C411.048 424.742 401.473 433.84 383.54 439.207C377.931 440.825 372.205 442.009 366.413 442.748Z"/><path fill="#FEEDD5" d="M366.413 442.748C367.097 435.045 410.825 409.294 419.861 408.453C411.048 424.742 401.473 433.84 383.54 439.207C377.931 440.825 372.205 442.009 366.413 442.748Z"/><path fill="#221814" d="M382.705 343.775C389.921 343.451 409.241 340.501 410.52 350.196C411.883 360.525 401.727 360.202 394.718 360.921C395.022 365.216 395.287 370.29 394.633 374.525C393.424 382.315 389.101 389.279 382.656 393.818C376.283 398.259 368.388 399.94 360.758 398.48C352.559 396.911 346.773 391.715 342.341 384.989C338.253 376.998 337.973 371.31 338.309 362.424L337.307 362.556C331.533 363.288 308.677 365.559 305.856 361.562C293.867 344.572 322.556 346.439 329.344 346.016C347.104 344.738 364.9 343.99 382.705 343.775Z"/><path fill="#FEEDD5" d="M902.454 618.579C902.899 619.5 902.603 731.465 902.621 742.215C864.879 729.794 826.825 715.276 788.894 703.373C782.316 701.309 760.839 718.902 754.264 723.619C749.4 726.976 744.616 730.447 739.916 734.031C740.136 695.635 740.032 657.238 739.604 618.844C782.139 639.436 860.54 640.374 902.454 618.579Z"/><path fill="#FEEDD5" d="M584.001 665.807C588.754 667.383 598.116 667.388 604.028 668.575C637.436 675.282 672.128 705.092 670.438 742.043C663.195 741.408 658.138 747.691 652.492 751.8C640.631 760.513 626.261 765.141 611.543 764.988C607.623 755.095 608.91 746.395 612.406 736.492C614.942 729.308 615.952 718.161 604.651 720.131C598.769 721.156 595.414 731.954 594.294 737.075C592.271 746.321 592.567 755.743 594.764 764.92C584.298 763.59 571.26 764.107 563.413 755.69C557.925 749.783 558.592 738.427 561.96 730.667C564.622 724.534 572.087 711.99 556.659 713.013C554.768 713.139 551.996 715.86 550.865 717.563C543.475 728.693 542.616 742.288 545.068 755.123C543.014 754.232 540.902 753.346 538.912 752.311C520.666 742.816 519.498 721.695 528.468 705.183C540.35 683.312 561.156 672.998 584.001 665.807Z"/><path fill="#FEEDD5" d="M221.35 724.171C223.858 688.058 270.801 666.881 301.918 665.26C310.736 664.801 319.739 665.521 328.133 664.871L328.635 664.827C338.419 669.439 347.902 675.941 354.641 684.448C373.061 707.704 374.328 737.855 343.827 750.257C347.23 737.371 348 726.076 342.425 713.57C339.498 707.002 327.329 703.931 326.184 713.39C325.691 717.464 328.264 721.306 329.332 725.116C335.797 753.776 317.581 758.386 294.963 757.95C297.671 744.104 297.54 728.427 290.53 715.865C286.456 709.284 275.851 709.683 276.324 718.952C276.589 724.132 278.469 728.9 279.671 733.994C280.78 738.092 282.444 757.223 275.212 756.094C261.955 754.024 248.894 746.562 240.635 735.906C235.446 729.21 231.779 719.44 221.35 724.171Z"/><path fill="#FEEDD5" d="M621.01 848.914C657.016 861.995 694.136 876.969 729.994 890.781L779.625 909.882C788.488 913.303 798.503 916.924 807.147 920.699C811.399 921.551 812.611 921.868 816.924 920.666C817.003 931.472 817.271 942.889 816.543 953.608C816.544 953.684 816.544 953.759 816.545 953.835C813.234 956.829 811.377 956.888 807.033 956.36C798.848 953.774 787.955 949.136 779.791 945.918C763.326 939.511 746.907 932.986 730.536 926.343L656.216 896.724C644.647 892.106 632.378 887.486 620.982 882.653L621.01 848.914Z"/><path fill="#B7A08B" d="M807.147 920.699C811.399 921.551 812.611 921.868 816.924 920.666C817.003 931.472 817.271 942.889 816.543 953.608C816.544 953.684 816.544 953.759 816.545 953.835C813.234 956.829 811.377 956.888 807.033 956.36C807.207 944.501 806.887 932.59 807.147 920.699Z"/><path fill="#FEEDD5" d="M751.641 605.375C747.067 603.023 737.759 597.929 742.322 591.547C749.383 581.671 765.336 577.922 776.424 575.153C813.533 568.099 858.798 568.148 893.023 585.454C895.951 586.934 901.032 591.551 901.68 594.785C902.843 600.591 895.365 604.154 890.883 606.255C888.44 607.594 878.557 610.76 875.791 611.526C844.504 620.193 779.521 620.721 751.641 605.375Z"/><path fill="#5A473D" d="M751.641 605.375C771.855 588.917 817.709 588.425 843.467 590.875C854.75 591.948 884.942 596.165 890.883 606.255C888.44 607.594 878.557 610.76 875.791 611.526C844.504 620.193 779.521 620.721 751.641 605.375Z"/><path fill="#EDB374" d="M731.7 351.451C738.411 350.179 746.621 349.07 753.02 347.485C759.005 366.515 764.865 385.357 769.744 404.721C776.508 431.57 778.652 453.771 768.912 480.425C766.703 477.79 764.504 475.096 762.246 472.508C745.911 453.782 719.568 446.583 696.146 442.395C701.006 437.88 705.474 433.567 709.255 428.057C724.044 406.503 728.622 376.856 731.7 351.451Z"/><path fill="#5A473D" d="M216.538 820.205C253.601 819.55 292.602 820.176 329.831 820.155L385.804 820.134C392.023 820.134 420.073 819.542 423.997 821.223C426.424 825.318 421.762 835.323 420.712 839.767C420.326 841.399 417.104 842.09 415.727 842.349C400.971 842.717 384.407 842.067 369.397 842.036L266.45 842.017L223.816 842.007C219.443 842.005 213.543 842.071 209.316 841.859C204.946 841.64 210.873 828.423 211.744 826.782C213.232 823.976 213.367 821.443 216.538 820.205Z"/><path fill="#FEEDD5" d="M816.924 920.666L961.889 803.103L961.972 833.68C949.128 845.531 929.43 860.882 915.411 872.454L816.545 953.835C816.544 953.759 816.544 953.684 816.543 953.608C817.271 942.889 817.003 931.472 816.924 920.666Z"/><path fill="#EDB374" d="M214.691 348.658C219.423 349.462 224.219 350.39 228.948 351.256C232.295 377.665 237.334 409.133 253.241 431.166C256.742 436.015 260.256 439.225 264.599 443.22C236.563 447.901 214.856 457.098 197.621 480.112C185.925 450.832 193.426 421.316 201.65 392.391C205.815 377.743 210.353 363.25 214.691 348.658Z"/><path fill="#5A473D" d="M106.07 788.611C131.026 787.016 158.504 789.371 183.69 788.387C186.509 788.277 190.544 788.213 192.402 790.328C192.786 791.669 193.033 793.181 192.47 794.484C189.76 800.762 190.092 805.52 183.828 808.903C177.645 809.649 100.161 809.967 97.763 808.539C96.1284 804.111 102.835 791.852 106.07 788.611Z"/><path fill="#5A473D" d="M498.63 820.18C511.342 819.719 525.827 820.286 538.765 820.082C544.491 819.992 566 819.743 570.319 820.773C571.508 824.264 568.517 839.999 564.905 842.364C558.526 843.244 497.685 843.862 494.11 842.43C493.421 842.155 493.062 841.903 492.841 841.193C491.78 837.789 494.066 826.052 495.733 822.499C496.445 820.982 497.121 820.769 498.63 820.18Z"/><path fill="#5A473D" d="M138.686 757.241C145.29 757.222 177.647 756.11 181.049 758.646C181.451 761.792 177.203 771.164 175.238 773.844C172.377 777.748 164.366 776.825 159.75 776.782C152.402 776.801 121.945 777.36 116.701 775.972C116.195 775.186 115.942 775.072 116.097 774.221C119.613 754.863 125 757.266 138.686 757.241Z"/><path fill="#5A473D" d="M160.527 726.753C166.177 726.679 193.214 725.445 196.563 729.449C204.372 738.785 198.107 747.539 185.759 745.05C185.022 744.902 172.708 744.984 170.707 744.972C165.834 744.982 135.366 745.612 132.293 744.544L131.92 743.348C132.426 740.211 134.944 735.86 135.922 732.57C138.405 724.22 152.795 726.772 160.527 726.753Z"/><path fill="#5A473D" d="M93.957 820.226C104.963 819.871 116.141 820.238 127.164 820.06C128.274 820.042 137.457 819.93 137.167 821.748C136.154 828.099 132.384 841.023 125.104 842.43C118.429 842.379 84.8667 843.642 81.2115 841.41C80.3658 840.894 80.0161 839.604 79.9208 838.688C79.464 834.294 83.3889 826.83 86.2408 823.535C88.7004 820.693 90.3638 820.424 93.957 820.226Z"/><path fill="#5A473D" d="M529.619 788.159C535.859 787.877 574.471 787.657 578.585 788.674C580.337 791.858 576.297 805.707 572.963 808.357C557.748 809.282 541.179 808.84 525.936 808.39C522.602 808.292 523.916 790.876 529.619 788.159Z"/><path fill="#5A473D" d="M162.462 820.231C168.907 820.193 193.25 819.439 197.454 821.321L197.762 822.262C197.314 826.217 192.989 836.922 190.218 840.192C188.616 842.083 185.289 842.023 182.907 842.108C172.828 842.365 157.447 843.421 147.72 841.371C144.237 840.637 153.837 824.841 154.645 823.33C156.292 820.249 159.325 820.426 162.462 820.231Z"/><path fill="#5A473D" d="M442.993 820.223C448.855 820.019 473.647 819.154 477.477 821.715C479.161 825.495 476.269 840.501 471.85 842.872C463.932 843.19 446.788 843.349 438.77 842.543C434.185 842.082 440.654 823.535 442.993 820.223Z"/><path fill="#5A473D" d="M209.055 788.621C214.71 788.36 240.749 787.707 244.894 789.04C246.609 791.997 240.592 805.351 238.567 808.215C234.694 809.611 211.272 809.327 206.104 808.827C204.348 808.657 203.903 808.39 203.047 807.181C202.659 803.22 205.471 791.003 209.055 788.621Z"/><path fill="#5A473D" d="M199.615 757.222C210.881 757.138 222.724 756.714 233.856 757.605C237.988 757.936 231.69 773.321 230.267 774.874C228.695 776.59 229.412 776.156 227.058 776.602L205.233 776.671C201.603 776.702 196.039 777.049 192.644 776.465C188.448 772.874 194.371 758.538 199.615 757.222Z"/><path fill="#5A473D" d="M369.476 788.224C373.884 787.936 402.461 787.019 404.223 789.65C404.3 792.204 403.869 794.748 402.955 797.135C401.51 800.886 400.842 806.427 397.946 808.542C389.144 809.483 377.71 808.824 368.685 809.016C366.499 809.063 364.831 809.005 363.417 807.515C362.48 803.5 365.664 790.007 369.476 788.224Z"/><path fill="#5A473D" d="M265.937 788.232C270.556 788.11 295.054 787.346 297.316 789.429C299.04 793.37 293.939 807.381 289.453 809.463C279.8 809.496 268.104 809.974 258.409 808.966C255.433 808.389 256.779 802.822 257.626 801.256C260.456 796.021 258.906 789.247 265.937 788.232Z"/><path fill="#5A473D" d="M322.732 788.243C327.963 788.169 347.847 787.172 351.017 789.31C353.571 793.705 348.555 803.129 345.854 806.978C344.652 808.691 342.956 808.687 341.041 808.922C336.049 808.972 314.365 809.741 311.118 808.208C309.084 804.598 313.146 792.402 315.706 789.24C317.793 788.26 320.355 788.366 322.732 788.243Z"/><path fill="#5A473D" d="M423.802 788.193C429.308 788.143 453.587 786.835 456.389 789.863C457.289 794.381 454.156 801.784 452.706 806.251C452.229 807.72 450.731 808.254 449.37 808.688C443.912 809.076 437.765 808.884 432.257 808.939C429.06 808.971 418.108 809.58 416.419 807.549C415.684 803.057 417.915 794.879 419.88 790.592C420.702 788.8 422.229 788.592 423.802 788.193Z"/><path fill="#5A473D" d="M476.523 788.212C484.579 787.82 492.982 788.139 501.078 787.972C503.964 787.913 507.89 787.759 509.677 790.208C510.332 793.51 508.744 802.124 507.519 805.438C506.744 807.535 506.269 807.672 504.529 808.479C494.032 809.113 481.412 808.946 470.953 808.453C470.851 803.097 471.856 795.676 473.828 790.574C474.501 788.833 475.104 788.811 476.523 788.212Z"/><path fill="#5A473D" d="M415.716 757.231C421.906 757.136 434.327 756.54 439.756 757.781C443.553 761.035 440.359 772.119 437.659 775.574C436.493 777.067 430.507 776.611 428.375 776.61C421.095 776.696 410.729 777.436 403.946 775.787C400.274 774.894 403.759 761.046 406.197 759.009C408.908 756.746 412.446 757.328 415.716 757.231Z"/><path fill="#5A473D" d="M459.998 757.648C465.976 757.434 488.534 756.977 492.82 758.706C494.938 761.838 492.615 773.719 489.026 776.396C479.045 776.841 465.013 776.951 455.061 776.48C454.739 770.791 455.506 761.633 459.998 757.648Z"/><path fill="#5A473D" d="M374.834 757.222C378.296 757.077 386.705 756.378 388.998 758.158C391.188 759.859 386.724 774.973 384.641 775.97C381.891 777.288 369.231 776.685 366.25 776.645C363.273 776.703 352.82 777.33 350.827 775.888C349.349 772.195 350.761 767.554 353.594 764.939C359.78 759.229 366.778 757.473 374.834 757.222Z"/><path fill="#5A473D" d="M431.353 727.077C436.933 726.912 458.838 726.365 463.097 727.708C465.889 730.849 462.54 742.109 460.289 745.271C456.376 745.671 430.949 746.219 427.988 744.65C426.846 741.098 429.314 730.152 431.353 727.077Z"/><path fill="#5A473D" d="M385.057 727.013C393.426 726.654 405.718 726.88 414.11 727.115C413.887 732.142 412.568 742.876 407.989 745.612C403.488 745.691 380.421 746.353 378.326 744.083C378.926 740.478 383.292 730.532 385.057 727.013Z"/><path fill="#5A473D" d="M488.863 726.723C495.001 726.554 500.456 726.437 506.594 726.622C507.98 732.709 508.526 738.46 510.137 745.094C507.162 745.513 504.253 745.449 501.25 745.469C495.558 745.448 485.429 746.126 480.341 744.649C477.701 741.891 479.09 730.446 481.538 727.622C483.797 726.654 486.344 726.807 488.863 726.723Z"/><path fill="#5A473D" d="M511.825 756.637C512.8 756.518 515.73 756.182 516.574 756.814C523.206 761.775 528.68 767.924 536.812 770.613C539.314 771.441 542.796 772.25 544.901 773.784L544.798 774.638C543.253 775.945 543.107 775.928 541.105 776.481C532.832 776.914 524.197 776.498 515.888 776.633C513.251 776.675 509.206 776.874 507.496 774.863C505.973 769.224 506.72 760.39 511.825 756.637Z"/><path fill="#5A473D" d="M247.48 765.308C259.346 770.092 265.92 771.72 278.014 775.046L278.214 775.634L276.431 776.475C269.57 776.735 262.626 776.651 255.775 776.727C245.264 776.844 240.913 776.793 247.48 765.308Z"/><path fill="#5A473D" d="M334.963 767.518C335.723 769.074 335.14 773.909 333.45 774.731C326.168 778.272 311.212 776.683 303.471 776.462L302.83 776.051C304.633 775.191 314.95 773.856 317.966 773.174C324.768 771.637 328.614 770.116 334.963 767.518Z"/><path fill="#070504" d="M949.838 685.712C949.545 683.992 950.08 683.666 950.608 682.105C954.782 669.761 955.511 657.548 949.485 645.641L950.261 645.338C957.713 655.724 956.468 675.287 949.838 685.712Z"/><path fill="#070504" d="M962.169 638.138L963.221 638.375C967.159 646.036 969.428 652.009 967.557 660.696C966.869 650.514 966.096 647.697 962.169 638.138Z"/></svg>